<svg width="203" height="26" viewBox="0 0 203 26" fill="none" xmlns="http://www.w3.org/2000/svg">
<rect width="25" height="25" rx="2" fill="white"/>
<path fill-rule="evenodd" clip-rule="evenodd" d="M2.1338 0.00314854H19.9196L19.8847 0.0293194H19.8794C19.6369 0.21775 19.452 0.47597 19.3525 0.784786L18.2813 4.11024L17.2187 7.3659L17.2292 7.36939L16.8645 8.49997L8.76377 8.48427C8.42005 8.48427 8.10251 8.58895 7.84255 8.77913C7.58259 8.9693 7.3802 9.23799 7.27551 9.56425C7.16908 9.89052 7.17257 10.2273 7.27377 10.5326C7.37496 10.8414 7.56863 11.1153 7.84604 11.316L14.408 16.0686C13.567 18.6438 12.733 21.1946 11.8903 23.7751C11.8275 23.967 11.8031 24.1641 11.8135 24.3578C11.8083 24.5462 11.838 24.7312 11.8973 24.9074C11.906 24.9336 11.9165 24.9597 11.927 24.9842H2.1338C0.9596 24.9842 0 24.0228 0 22.8486V2.13695C0 0.962749 0.9596 0.00140381 2.1338 0.00140381V0.00314854ZM21.7829 0.00314854H22.849C24.0232 0.00314854 24.9828 0.964493 24.9828 2.13869V8.49997H24.8135L23.7161 5.09775L22.3412 0.786531C22.2383 0.463757 22.0411 0.193324 21.7812 0.00314854H21.7829ZM24.8275 23.6494C24.5099 24.4311 23.7405 24.9859 22.849 24.9859H15.1966L20.8373 20.7445H20.839H20.8408C22.165 21.711 23.4997 22.6759 24.8275 23.6477V23.6494Z" fill="#FFE800"/>
<path fill-rule="evenodd" clip-rule="evenodd" d="M143.228 0.198563C136.368 0.198563 130.806 5.76075 130.806 12.621C130.806 19.4813 136.368 25.0435 143.228 25.0435C150.088 25.0435 155.651 19.4813 155.651 12.621C155.651 5.76075 150.088 0.198563 143.228 0.198563ZM143.228 5.1815C147.337 5.1815 150.666 8.51219 150.666 12.621C150.666 16.7299 147.335 20.0588 143.228 20.0588C139.119 20.0588 135.79 16.7281 135.79 12.621C135.79 8.51219 139.121 5.1815 143.228 5.1815Z" fill="#F42C24"/>
<path fill-rule="evenodd" clip-rule="evenodd" d="M180.684 0.542277C179.412 1.33787 179.52 2.9657 179.555 4.28297L179.517 22.1769C179.557 23.1435 179.813 24.0403 180.717 24.5305C181.921 25.1831 187.495 24.9894 188.999 24.9301C190.584 24.8673 192.161 24.5532 193.649 24.0106C197.69 22.5381 200.888 19.3312 201.87 15.0706C202.28 13.2927 202.263 11.4416 201.832 9.66895C200.699 4.99657 196.997 1.63622 192.346 0.563214C190.566 0.153203 182.809 -0.321363 181.181 0.298015C180.912 0.400954 180.907 0.400954 180.684 0.542277ZM189.299 4.93724C190.711 5.10474 192.096 5.47986 193.314 6.23358C194.256 6.81632 195.047 7.60144 195.628 8.5436C196.362 9.73525 196.737 11.1223 196.739 12.5198C196.739 13.9226 196.364 15.3131 195.626 16.5083C194.19 18.8305 191.901 19.8006 189.27 20.1059C187.841 20.2717 186.38 20.1966 184.946 20.1513L184.939 4.87792C186.438 4.83954 187.794 4.75579 189.303 4.93724H189.299Z" fill="#F42C24"/>
<path fill-rule="evenodd" clip-rule="evenodd" d="M123.71 7.13735C125.54 6.0626 125.845 4.30915 124.209 2.85579C122.044 0.931358 118.211 -0.0491793 115.358 0.064228C108.055 0.355597 102.517 5.83579 102.808 13.1671C102.899 15.4318 103.597 17.6336 104.877 19.5057C107.465 23.2883 112.085 25.2721 116.609 24.9528C121.103 24.637 124.905 22.1246 126.7 17.9529C127.311 16.5345 127.63 14.8647 127.752 13.3294C127.955 10.7646 126.653 10.3791 124.436 10.3599C122.11 10.3389 119.777 10.3511 117.441 10.3511C116.127 10.3511 115.053 11.4259 115.053 12.7397C115.053 14.0535 116.127 15.1282 117.441 15.1282H122.302C122.19 16.1698 121.505 17.6511 120.276 18.6211L120.165 18.7084C118.8 19.7378 117.017 20.2193 115.321 20.1809C113.174 20.1321 111.101 19.2667 109.75 17.5604C108.801 16.3635 108.198 14.9485 108.027 13.4288C107.564 9.32001 110.34 5.37692 114.54 4.9041C116.731 4.65809 118.614 4.97564 120.341 6.42376C121.737 7.59273 121.962 7.74975 123.708 7.13386L123.71 7.13735Z" fill="#F42C24"/>
<path fill-rule="evenodd" clip-rule="evenodd" d="M57.6667 11.651C57.33 11.8551 57.0439 12.0784 56.7664 12.3558C55.4788 13.6399 54.8315 15.4562 54.8315 17.2585C54.8315 18.1989 55.006 19.1376 55.3515 20.0134C55.7161 20.9381 56.2657 21.7756 56.9671 22.4787C58.7956 24.3124 61.3533 24.9772 63.8797 24.9754C65.7134 24.9754 67.5855 24.6317 69.2011 23.7332C70.6719 22.9149 71.8077 21.7006 72.4655 20.146C73.1826 18.4502 73.3274 16.4821 72.6941 14.7356C72.2178 13.4253 71.3541 12.3523 70.1851 11.5951L69.8659 11.3875L70.1363 11.1188C70.7714 10.4872 71.2965 9.82772 71.6699 9.00595C72.4184 7.35195 72.2369 5.6491 71.5111 4.02476C70.965 2.80345 69.9775 1.87176 68.8225 1.22447C67.5 0.48296 65.9455 0.102609 64.4345 0.0328203C62.88 -0.0387135 61.2696 0.214272 59.8441 0.851097C58.4239 1.48618 57.2288 2.48242 56.4646 3.84854C56.3826 3.9951 56.3058 4.14514 56.2361 4.29868C55.6062 5.6805 55.5556 7.24378 56.0546 8.67446C56.3809 9.60788 56.9549 10.5064 57.7086 11.1537L58.0296 11.4294L57.6685 11.6492L57.6667 11.651ZM65.1097 20.7218C64.5061 20.8684 63.871 20.9015 63.2551 20.823C62.6549 20.7462 62.0634 20.5595 61.5383 20.2577C60.1913 19.4848 59.6313 18.1553 59.8023 16.6391C59.982 15.0375 61.1876 14.0726 62.695 13.7446C63.3284 13.6068 63.9931 13.5824 64.6352 13.6661C65.258 13.7464 65.8809 13.9296 66.434 14.2297C67.7251 14.931 68.3514 16.1419 68.1037 17.5987C67.8298 19.2231 66.6905 20.3345 65.1115 20.7218H65.1097ZM61.9762 4.7558C62.4194 4.52724 62.9131 4.38766 63.4069 4.32485C63.9163 4.26029 64.4398 4.276 64.9422 4.37894C66.1182 4.6232 67.0795 5.349 67.2243 6.60346C67.3535 7.72183 66.8632 8.61862 65.8722 9.14204C65.4465 9.36711 64.9702 9.50146 64.4938 9.55903C63.9983 9.6201 63.4854 9.59916 62.9969 9.49448C61.8139 9.23975 60.816 8.49649 60.6153 7.24552C60.4356 6.12366 60.9957 5.26002 61.9762 4.7558Z" fill="#F42C24"/>
<path fill-rule="evenodd" clip-rule="evenodd" d="M40.3416 0.198572L40.1131 0.196827C39.2547 0.191593 38.3718 0.186359 37.5187 0.296277C36.7719 0.392237 36.2276 0.769098 35.8629 1.42512C35.5611 1.96598 35.4337 2.61851 35.3325 3.22567L35.3308 3.2344L34.6905 10.7873C34.5509 12.0121 35.0883 13.1654 36.2276 13.6975C37.1034 14.1058 38.1311 14.0238 38.9371 13.4969L38.9528 13.4864L38.9668 13.4742C40.045 12.4832 40.879 12.1709 42.3428 12.1517C43.6549 12.1343 44.946 12.5094 45.8358 13.5213C46.3173 14.0674 46.6244 14.7391 46.7588 15.451C46.8948 16.175 46.8512 16.9323 46.6401 17.6389C46.2755 18.8637 45.431 19.8494 44.2463 20.3414C43.2728 20.7462 42.2033 20.8195 41.1878 20.5281C40.2753 20.2664 39.3524 19.6819 38.8761 18.8427C38.733 18.5897 38.6248 18.3211 38.5167 18.0524C38.1066 17.023 37.7525 16.4001 36.5818 16.2291C36.2747 16.1838 35.9606 16.1855 35.6553 16.2431C35.1773 16.3321 34.7428 16.5554 34.4061 16.9078C34.0693 17.262 33.8652 17.7087 33.7954 18.1902C33.7501 18.5095 33.7623 18.834 33.8216 19.1498C33.8757 19.4412 33.9525 19.729 34.0519 20.01C34.7428 21.971 36.4055 23.2988 38.2933 24.042C40.2056 24.7957 42.4493 24.9964 44.4697 24.6195C44.953 24.5288 45.4293 24.4049 45.8916 24.2409C46.9559 23.8658 47.9783 23.3528 48.8559 22.6393C49.6951 21.9571 50.3564 21.1283 50.8257 20.1548C51.5184 18.7189 51.8813 17.1311 51.7993 15.533C51.726 14.1581 51.323 12.8234 50.5762 11.6649C49.7981 10.4558 48.7041 9.52414 47.4165 8.90476L47.4026 8.89953C44.8605 7.79511 42.4859 7.79163 39.8618 8.59246L39.4361 8.72331L39.724 4.50456H48.9327C50.1121 4.50456 51.077 3.53798 51.077 2.36029C51.077 1.18085 50.1121 0.216019 48.9327 0.216019H40.3451V0.203806L40.3416 0.198572Z" fill="#F42C24"/>
<path fill-rule="evenodd" clip-rule="evenodd" d="M82.7349 0.198572L82.5064 0.196827C81.648 0.191593 80.7651 0.186359 79.9137 0.296277C79.167 0.392237 78.6226 0.769098 78.258 1.42512C77.9561 1.96598 77.8305 2.61851 77.7276 3.22567L77.7258 3.2344L77.0837 10.7873C76.9442 12.0121 77.4815 13.1654 78.6209 13.6975C79.4967 14.1058 80.5243 14.0238 81.3304 13.4969L81.3461 13.4864L81.3601 13.4742C82.4383 12.4832 83.2723 12.1709 84.7361 12.1517C86.0482 12.1343 87.3393 12.5094 88.2291 13.5213C88.7106 14.0674 89.0177 14.7391 89.152 15.451C89.2881 16.175 89.2445 16.9323 89.0334 17.6389C88.667 18.8637 87.8243 19.8494 86.6379 20.3414C85.6643 20.7462 84.5948 20.8195 83.5794 20.5281C82.6669 20.2664 81.7439 19.6819 81.2676 18.8427C81.1245 18.5897 81.0146 18.3211 80.9082 18.0524C80.4982 17.023 80.144 16.4001 78.9715 16.2291C78.6645 16.1838 78.3504 16.1855 78.0451 16.2431C77.567 16.3321 77.1326 16.5554 76.7959 16.9078C76.4591 17.262 76.255 17.7087 76.1852 18.1902C76.1381 18.5095 76.1521 18.834 76.2114 19.1498C76.2655 19.4412 76.3422 19.729 76.4417 20.01C77.1326 21.971 78.7953 23.2988 80.6831 24.042C82.5953 24.7957 84.8391 24.9964 86.8577 24.6195C87.341 24.5288 87.8173 24.4049 88.2814 24.2409C89.3439 23.8658 90.3664 23.3528 91.2457 22.6393C92.0849 21.9571 92.7462 21.1283 93.2155 20.1548C93.9082 18.7189 94.2728 17.1311 94.1891 15.533C94.1175 14.1581 93.7127 12.8234 92.966 11.6649C92.1879 10.4558 91.0939 9.52414 89.8063 8.90476L89.7923 8.89953C87.2503 7.79511 84.8757 7.79163 82.2516 8.59246L81.8259 8.72331L82.1138 4.50456H91.3225C92.5019 4.50456 93.4667 3.53798 93.4667 2.36029C93.4667 1.18085 92.5019 0.216019 91.3225 0.216019H82.7349V0.203806V0.198572Z" fill="#F42C24"/>
<path fill-rule="evenodd" clip-rule="evenodd" d="M166.578 20.1129C164.399 20.1129 163.682 18.5915 163.682 16.7037V2.50509C163.682 1.13548 162.562 0.0153656 161.192 0.0153656C159.763 0.0153656 158.697 1.17561 158.695 2.58186L158.688 15.533C158.713 18.3019 158.777 20.9695 160.953 22.983C161.953 23.9077 163.221 24.5305 164.563 24.7608C165.074 24.8498 165.972 24.883 166.578 24.883H174.04C175.439 24.883 176.584 23.7384 176.584 22.3392C176.584 20.898 175.38 20.1111 174.04 20.1111H166.578V20.1129Z" fill="#F42C24"/>
</svg>
